<?xml version="1.0" encoding="UTF-8" standalone="no"?>
<!-- Created with Inkscape (http://www.inkscape.org/) -->

<svg
   width="105.83333mm"
   height="105.83333mm"
   viewBox="0 0 105.83333 105.83333"
   version="1.1"
   id="svg1"
   inkscape:version="1.4 (86a8ad7, 2024-10-11)"
   sodipodi:docname="15.svg"
   xmlns:inkscape="http://www.inkscape.org/namespaces/inkscape"
   xmlns:sodipodi="http://sodipodi.sourceforge.net/DTD/sodipodi-0.dtd"
   xmlns="http://www.w3.org/2000/svg"
   xmlns:svg="http://www.w3.org/2000/svg">
  <sodipodi:namedview
     id="namedview1"
     pagecolor="#ffffff"
     bordercolor="#000000"
     borderopacity="0.25"
     inkscape:showpageshadow="2"
     inkscape:pageopacity="0.0"
     inkscape:pagecheckerboard="0"
     inkscape:deskcolor="#d1d1d1"
     inkscape:document-units="mm"
     inkscape:zoom="0.75811588"
     inkscape:cx="125.97019"
     inkscape:cy="330.42442"
     inkscape:window-width="1920"
     inkscape:window-height="1009"
     inkscape:window-x="1912"
     inkscape:window-y="-8"
     inkscape:window-maximized="1"
     inkscape:current-layer="layer1" />
  <defs
     id="defs1" />
  <g
     inkscape:label="Ebene 1"
     inkscape:groupmode="layer"
     id="layer1"
     transform="translate(-71.702084,-61.118749)">
    <g
       id="g7533"
       transform="matrix(0.26458333,0,0,0.26458333,71.702084,61.118749)"
       inkscape:label="1">
      <rect
         id="rect1662"
         fill="#ffffff"
         width="400"
         height="400"
         x="0"
         y="0"
         inkscape:label="1" />
      <rect
         id="rect1664"
         x="10"
         y="10"
         fill="#237F52"
         width="380"
         height="380"
         inkscape:label="1" />
    </g>
    <path
       id="path6154"
       style="color:#000000;fill:#ffffff;fill-opacity:1;stroke-width:0.732129"
       d="m 132.58051,73.827737 c -2.60046,0 -4.6935,1.68114 -4.6935,3.76883 0,2.08768 2.09356,3.715656 4.6935,3.767696 l 3.30706,0.0668 -0.002,3.81072 -17.17139,-0.10186 c -6.88014,0.0634 -11.96964,5.52049 -14.3261,11.27368 -2.05931,5.027707 -2.29569,9.958957 -1.59468,14.040877 h 11.86221 c -0.64303,-3.30096 -0.61036,-6.87995 0.45724,-9.64844 0.42697,-0.952217 2.93294,-4.078807 5.08623,-4.026877 l 7.90775,0.052 c 1.99348,2.09396 6.31937,3.437137 11.08467,3.441747 4.76488,-0.005 9.09023,-1.347967 11.08353,-3.441747 h 13.75568 v -11.58945 h -20.93909 l -0.002,-3.81185 3.30706,-0.0656 c 2.59994,-0.052 4.6935,-1.680016 4.6935,-3.767696 0,-2.08769 -2.09304,-3.76883 -4.6935,-3.76883 z m -43.244247,39.699503 -4.129876,1.15215 11.034867,39.5637 h 31.515596 l 11.03488,-39.5637 -4.12987,-1.15215 -2.21264,7.93266 c -0.71599,0.17444 -1.41936,0.34148 -2.11303,0.43687 -1.62222,0.22306 -3.17255,0.13925 -5.0172,-0.93033 l -0.007,-0.005 -0.006,-0.003 c -1.5282,-0.85699 -3.09278,-1.8512 -5.08962,-2.10285 -0.49921,-0.0629 -1.0179,-0.0733 -1.55847,-0.0249 -1.62167,0.14527 -3.44378,0.82749 -5.54799,2.26922 l -0.009,0.007 -0.009,0.007 c -1.50772,1.0824 -2.70511,2.03768 -3.84693,2.40051 -1.1418,0.36284 -2.29564,0.30708 -4.23625,-0.89636 -4.77388,-3.43362 -9.352352,-3.1734 -14.002412,-3.10222 z m 30.069177,7.29885 c 0.19065,0.005 0.37646,0.019 0.55797,0.0419 1.44803,0.18247 2.76738,0.9716 4.33811,1.85272 2.25656,1.30844 4.41629,1.44565 6.31195,1.18498 0.41558,-0.0572 0.81867,-0.13232 1.21327,-0.2139 l -1.10915,3.97481 c -1.04544,0.48502 -2.2647,0.65874 -3.95783,-0.24447 l -0.005,-0.003 -0.007,-0.003 c -1.68857,-0.87117 -3.49035,-1.79344 -5.69966,-1.97156 -2.2093,-0.17813 -4.73927,0.43228 -7.77194,2.34392 l -0.0102,0.006 -0.009,0.007 c -1.5147,1.00041 -3.08973,1.72837 -4.56334,1.97044 -1.47361,0.24207 -2.82422,0.0415 -4.15251,-0.84997 -4.07916,-2.83856 -6.446921,-3.7037 -8.567592,-3.75638 -1.174619,-0.0291 -2.170773,0.1537 -3.30254,0.31689 L 91.5703,121.53819 c 4.422118,-0.0727 8.216355,-0.20523 12.30813,2.76382 l 0.0306,0.0215 0.0306,0.0192 c 2.26718,1.40597 4.246,1.63667 5.92035,1.10462 1.66711,-0.52976 2.9657,-1.64304 4.39698,-2.67214 2.22772,-1.52635 3.81387,-1.9806 5.14847,-1.9478 z m -23.485602,6.44437 c 1.61107,0.04 3.485588,0.64196 7.431272,3.38968 l 0.008,0.006 0.008,0.005 c 1.78091,1.19512 3.77518,1.49138 5.66796,1.18046 1.88556,-0.30975 3.69167,-1.1788 5.36351,-2.28055 2.76485,-1.7428 4.76653,-2.16408 6.48057,-2.02589 1.71406,0.1382 3.22681,0.87994 4.90176,1.74407 1.54788,0.82219 3.01582,0.95996 4.277,0.74585 l -5.55705,19.9205 H 99.497381 l -6.249692,-22.40362 c 1.028818,-0.14932 1.862059,-0.30081 2.672133,-0.28069 z"
       inkscape:label="1" />
  </g>
</svg>
