<?xml version="1.0" encoding="UTF-8" standalone="no"?>
<!-- Created with Inkscape (http://www.inkscape.org/) -->

<svg
   width="105.83334mm"
   height="105.83334mm"
   viewBox="0 0 105.83334 105.83334"
   version="1.1"
   id="svg1"
   inkscape:version="1.4 (86a8ad7, 2024-10-11)"
   sodipodi:docname="ISO_7010_E071.svg"
   xmlns:inkscape="http://www.inkscape.org/namespaces/inkscape"
   xmlns:sodipodi="http://sodipodi.sourceforge.net/DTD/sodipodi-0.dtd"
   xmlns="http://www.w3.org/2000/svg"
   xmlns:svg="http://www.w3.org/2000/svg">
  <sodipodi:namedview
     id="namedview1"
     pagecolor="#ffffff"
     bordercolor="#000000"
     borderopacity="0.25"
     inkscape:showpageshadow="2"
     inkscape:pageopacity="0.0"
     inkscape:pagecheckerboard="0"
     inkscape:deskcolor="#d1d1d1"
     inkscape:document-units="mm"
     inkscape:zoom="0.73851712"
     inkscape:cx="244.40869"
     inkscape:cy="359.50419"
     inkscape:window-width="1920"
     inkscape:window-height="1009"
     inkscape:window-x="1912"
     inkscape:window-y="-8"
     inkscape:window-maximized="1"
     inkscape:current-layer="layer1" />
  <defs
     id="defs1" />
  <g
     inkscape:label="Ebene 1"
     inkscape:groupmode="layer"
     id="layer1"
     transform="translate(-40.481251,-53.445831)">
    <rect
       width="105.83334"
       height="105.83334"
       style="fill:#ffffff;stroke-width:0.529167"
       id="rect1662"
       x="40.481251"
       y="53.445831"
       inkscape:label="1" />
    <rect
       x="43.127094"
       y="56.091675"
       width="100.54166"
       height="100.54166"
       style="fill:#237F52;stroke-width:0.529167"
       id="rect1664"
       inkscape:label="1" />
    <path
       id="path2531"
       style="display:inline;fill:#ffffff;stroke-width:1.00668"
       inkscape:label="1"
       d="m 115.56297,68.937393 v 7.665682 h -7.66568 v 7.246586 h 7.66568 v 7.665682 h 7.24503 v -7.665682 h 7.66672 V 76.603075 H 122.808 V 68.937393 Z M 65.064762,83.454336 c -0.33235,-0.0015 -0.631249,0.230809 -0.701249,0.568958 -0.0809,0.386279 0.166995,0.765404 0.553455,0.845426 l 4.705656,0.968417 c 0.93783,0.208504 1.466395,0.631382 2.037085,1.388028 L 83.14893,105.97648 84.363843,105.23285 72.83018,86.402993 72.80744,86.372503 C 72.10859,85.44328 71.20127,84.725195 69.93113,84.442905 h -0.0036 l -4.718575,-0.973067 c -0.0483,-0.01097 -0.09629,-0.0155 -0.143661,-0.0155 z m -11.689725,6.61355 -5.17e-4,0.001 c -0.33236,-0.0015 -0.630723,0.229775 -0.700733,0.567924 -0.0809,0.386278 0.166995,0.764888 0.553455,0.844909 l 4.705656,0.969967 c 0.93782,0.208504 1.466405,0.631381 2.037085,1.388029 l 16.623275,27.131685 1.213879,-0.74259 -16.666683,-27.211267 -0.02274,-0.03204 c -0.69881,-0.929221 -1.60618,-1.646789 -2.87631,-1.929081 h -0.0041 l -4.71809,-0.973033 c -0.0483,-0.01098 -0.09681,-0.0155 -0.144177,-0.0155 z m 32.911169,14.857494 -10.774536,5.76295 c 0.38516,-0.0176 0.764241,-0.0228 1.135331,-0.005 1.85901,0.0902 3.583074,0.62438 5.557284,1.53117 l 10.985376,-5.7335 c -2.0685,-1.05983 -3.248605,-1.33698 -6.903455,-1.55597 z m 5.107699,3.60856 -5.17e-4,5.2e-4 -10.488766,5.4746 h -0.0041 c -0.7418,0.37344 -1.099042,0.80713 -1.264522,1.25677 -0.16549,0.44964 -0.139044,0.95055 0.03411,1.47433 0.34655,1.04754 1.331571,2.10676 2.013831,2.47375 l 0.190686,0.10077 c 0.9972,-1.39418 1.868885,-2.27967 2.639115,-2.83549 0.84002,-0.60614 1.575266,-0.83811 2.091346,-0.99942 0.0772,-0.0242 0.136864,-0.0435 0.202054,-0.0641 -0.53928,-0.36901 -1.010055,-0.82437 -1.775085,-1.8898 a 0.49382453,0.49382453 0 0 1 0.111104,-0.69092 0.49382453,0.49382453 0 0 1 0.36897,-0.0863 v 0.001 a 0.49382453,0.49382453 0 0 1 0.321944,0.19637 c 0.89805,1.25069 1.20451,1.50764 1.85105,1.87482 0.22343,-0.32893 0.48358,-0.92981 0.74259,-2.06293 l 1.388546,0.3173 c -0.25681,1.12363 -0.522628,1.88117 -0.872298,2.43757 l 8.591207,4.64572 c 0.14573,-0.35665 0.298702,-0.83714 0.451652,-1.50637 l 1.39268,0.31626 c -0.18041,0.78952 -0.368854,1.38441 -0.583944,1.87068 l 9.138982,4.94234 c 0.16353,-0.36507 0.33783,-0.87383 0.51159,-1.63401 l 1.39268,0.31729 c -0.19687,0.86131 -0.40213,1.49303 -0.64285,1.99988 l 10.4221,5.63428 c 0.21685,-0.33716 0.46647,-0.93715 0.71572,-2.02778 l 1.39268,0.32194 c -0.24993,1.0935 -0.50985,1.83741 -0.84646,2.39004 l 6.29367,3.40237 6.15053,-4.23746 -38.526848,-20.16311 c -1.47717,-0.88456 -2.400439,-1.81326 -3.403409,-3.25097 z m -15.28899,3.08664 c -0.72332,1.1e-4 -1.488977,0.0845 -2.313037,0.24236 l 5.474601,8.9364 a 1.5912089,1.5912089 0 0 1 -0.527099,2.18643 1.5912089,1.5912089 0 0 1 -2.191081,-0.5271 l -5.32629,-8.69456 c -0.68039,0.92572 -1.231966,2.17534 -1.231966,3.82768 0,4.34316 5.915918,6.93239 5.915918,6.93239 l 44.133219,23.48177 1.32705,-0.87126 c 0.19027,-1.82814 0.20789,-3.20162 0.11111,-4.1429 -0.14442,-1.40421 -0.53749,-1.91732 -0.63976,-1.99368 L 81.217265,120.08828 v -0.004 c -0.98313,-0.52883 -2.038253,-1.67642 -2.486153,-3.0303 -0.22452,-0.67693 -0.282461,-1.42339 -0.02222,-2.13011 0.26008,-0.70671 0.83878,-1.33872 1.74873,-1.79679 l 0.63407,-0.33124 c -1.78011,-0.7662 -3.297612,-1.17485 -4.987292,-1.17461 z m 12.161532,4.65087 c -0.40655,0.30576 -0.850841,0.45104 -1.237651,0.57206 -0.51915,0.1624 -1.009414,0.30919 -1.679484,0.79272 -0.58862,0.42476 -1.321209,1.15039 -2.199349,2.35231 l 8.735384,4.61005 c 0.94167,-1.21666 1.769056,-1.97278 2.500106,-2.44067 0.77621,-0.49679 1.444753,-0.6811 1.903243,-0.82683 0.34932,-0.11106 0.544727,-0.17629 0.722437,-0.33124 z m 10.03763,5.42706 c -0.004,0.006 -0.0083,0.0132 -0.01344,0.0176 -0.46317,0.58045 -1.065149,0.81773 -1.568379,0.97772 -0.50325,0.16 -0.96389,0.28129 -1.56838,0.66818 -0.53435,0.342 -1.190235,0.92325 -1.982825,1.91461 l 9.164297,4.83691 c 0.93399,-1.20975 1.75337,-1.96747 2.48047,-2.43809 0.78195,-0.50615 1.46079,-0.69395 1.92443,-0.84078 0.27662,-0.0876 0.45342,-0.15155 0.60358,-0.24804 z m 10.366293,5.60535 c -0.45484,0.51727 -1.01948,0.73864 -1.4981,0.89038 -0.50463,0.16 -0.97111,0.28666 -1.5813,0.68161 -0.53251,0.34469 -1.1872,0.92905 -1.97456,1.91565 l 10.41177,5.49475 c 0.99331,-1.33248 1.85775,-2.14734 2.62206,-2.65255 0.79283,-0.52407 1.48097,-0.71611 1.9544,-0.86558 0.0408,-0.0131 0.0694,-0.0232 0.10646,-0.0351 z m 29.57235,2.38073 -3.90157,12.83177 z m -3.92741,2.78174 -12.31501,8.48372 c 0.21114,0.44876 0.36862,1.06976 0.45837,1.94304 0.0907,0.88226 0.0865,2.06479 -0.0341,3.54758 l 12.49537,-8.19795 c 0.21267,-2.64412 0.1866,-3.40624 -0.10904,-5.51646 z m -14.09475,1.08211 c -0.38759,0.3043 -0.81404,0.46113 -1.187,0.57877 -0.50724,0.16001 -0.97726,0.28813 -1.59835,0.69867 -0.56792,0.37538 -1.27017,1.0213 -2.12545,2.13785 l 6.07714,3.20756 0.001,0.001 4.8736,-3.35742 z" />
  </g>
</svg>
